<?xml version="1.0" standalone="no"?>
<!DOCTYPE svg PUBLIC "-//W3C//DTD SVG 20010904//EN"
 "http://www.w3.org/TR/2001/REC-SVG-20010904/DTD/svg10.dtd">
<svg version="1.0" xmlns="http://www.w3.org/2000/svg"
 width="225.000000pt" height="225.000000pt" viewBox="0 0 225.000000 225.000000"
 preserveAspectRatio="xMidYMid meet">

<g transform="translate(0.000000,225.000000) scale(0.100000,-0.100000)"
fill="#000000" stroke="none">
<path d="M447 2064 c-14 -14 -7 -53 12 -63 26 -14 54 8 49 40 -2 17 -10 25
-28 27 -14 2 -29 0 -33 -4z"/>
<path d="M989 2050 c-36 -19 -99 -83 -99 -100 0 -6 -24 -10 -52 -10 -61 0
-112 -26 -130 -65 -11 -24 -14 -25 -108 -25 -106 0 -140 -13 -184 -73 -21 -28
-21 -33 -21 -760 0 -717 0 -733 20 -767 12 -21 39 -44 65 -58 l45 -23 571 3
571 3 37 29 c69 52 66 19 66 808 0 679 -1 715 -19 755 -29 63 -76 83 -195 83
-85 0 -95 2 -101 20 -3 10 -20 31 -36 45 -24 20 -41 25 -83 25 -50 0 -53 2
-83 43 -57 81 -179 112 -264 67z m172 -87 c17 -15 38 -42 45 -60 14 -32 16
-33 77 -33 92 0 135 -40 91 -84 -13 -14 -54 -16 -293 -16 -288 0 -289 0 -304
42 -12 34 17 52 93 56 70 4 72 5 86 37 35 84 138 114 205 58z m-446 -212 c3
-11 18 -27 33 -38 24 -16 55 -18 312 -21 313 -4 346 1 382 48 21 29 24 30 112
30 78 0 93 -3 113 -22 l23 -21 0 -714 0 -714 -25 -24 -24 -25 -555 0 c-305 0
-562 3 -571 6 -45 18 -45 22 -45 762 0 834 -15 752 140 752 88 0 99 -2 105
-19z"/>
<path d="M581 1536 c-8 -9 -10 -174 -9 -597 l3 -584 499 -3 c360 -1 503 1 512
9 12 9 14 113 14 585 0 507 -2 574 -16 588 -14 14 -73 16 -503 16 -400 0 -491
-2 -500 -14z m937 -588 l-3 -523 -432 -3 -433 -2 0 525 0 525 435 0 435 0 -2
-522z"/>
<path d="M995 1362 c-112 -54 -155 -178 -100 -289 37 -73 89 -107 174 -111 83
-4 142 23 186 86 24 36 30 55 33 115 3 60 8 76 29 99 17 18 23 32 18 47 -9 28
-42 37 -64 17 -17 -16 -22 -15 -70 16 -67 41 -146 48 -206 20z m159 -83 c14
-11 26 -23 26 -27 0 -4 -19 -22 -41 -41 l-40 -33 -16 21 c-11 16 -23 21 -46
19 -47 -4 -47 -37 -1 -87 47 -53 73 -53 131 0 25 22 47 39 50 36 2 -3 -5 -26
-16 -52 -17 -37 -29 -50 -67 -67 -40 -17 -52 -19 -85 -9 -54 16 -99 71 -99
122 0 48 20 90 56 118 36 29 112 29 148 0z"/>
<path d="M752 848 c-18 -18 -14 -46 7 -58 25 -13 48 -4 56 21 12 38 -35 65
-63 37z"/>
<path d="M882 848 c-18 -18 -14 -46 7 -58 11 -5 80 -10 155 -10 109 0 138 3
150 16 19 19 20 36 4 52 -17 17 -299 17 -316 0z"/>
<path d="M1272 848 c-18 -18 -15 -46 7 -58 11 -5 42 -10 69 -10 55 0 75 15 70
52 -3 21 -9 23 -68 26 -42 2 -70 -2 -78 -10z"/>
<path d="M752 718 c-28 -28 -1 -75 37 -63 11 3 23 15 26 26 12 38 -35 65 -63
37z"/>
<path d="M882 718 c-7 -7 -12 -19 -12 -28 0 -35 21 -40 166 -40 116 0 145 3
158 16 19 19 20 36 4 52 -17 17 -299 17 -316 0z"/>
<path d="M1264 705 c-10 -40 10 -55 76 -55 63 0 84 14 78 52 -3 21 -8 23 -75
26 -70 3 -73 2 -79 -23z"/>
<path d="M752 588 c-18 -18 -14 -46 7 -58 25 -13 48 -4 56 21 12 38 -35 65
-63 37z"/>
<path d="M882 588 c-18 -18 -14 -46 7 -58 11 -5 80 -10 155 -10 109 0 138 3
150 16 19 19 20 36 4 52 -17 17 -299 17 -316 0z"/>
<path d="M1272 588 c-18 -18 -15 -46 7 -58 11 -5 42 -10 69 -10 55 0 75 15 70
52 -3 21 -9 23 -68 26 -42 2 -70 -2 -78 -10z"/>
<path d="M1532 2018 c-28 -28 -1 -75 37 -63 25 8 34 31 21 56 -12 21 -40 25
-58 7z"/>
<path d="M1929 2007 c-46 -31 -61 -63 -55 -117 6 -64 57 -110 121 -110 37 0
52 6 81 33 112 102 -21 279 -147 194z m99 -69 c7 -7 12 -21 12 -33 0 -12 -5
-26 -12 -33 -7 -7 -21 -12 -33 -12 -12 0 -26 5 -33 12 -7 7 -12 21 -12 33 0
12 5 26 12 33 7 7 21 12 33 12 12 0 26 -5 33 -12z"/>
<path d="M184 1536 c-10 -27 1 -51 26 -54 31 -5 53 23 39 49 -12 22 -57 25
-65 5z"/>
<path d="M1960 975 c-14 -17 -5 -51 16 -59 22 -8 54 11 54 32 0 38 -46 56 -70
27z"/>
<path d="M193 890 c-47 -19 -71 -98 -44 -149 31 -58 120 -63 165 -10 72 85
-17 201 -121 159z m65 -92 c-4 -27 -33 -36 -42 -13 -8 22 1 35 25 35 15 0 20
-6 17 -22z"/>
<path d="M1926 590 c-39 -12 -83 -56 -97 -97 -15 -47 -4 -97 32 -138 60 -68
158 -67 218 0 27 31 31 43 31 95 0 52 -4 64 -31 94 -17 20 -47 40 -67 46 -42
11 -47 11 -86 0z m89 -95 c14 -13 25 -33 25 -45 0 -26 -43 -70 -68 -70 -33 0
-72 38 -72 70 0 32 39 70 72 70 10 0 30 -11 43 -25z"/>
<path d="M225 490 c-4 -12 -1 -27 5 -35 27 -33 78 -5 65 35 -9 28 -61 28 -70
0z"/>
</g>
</svg>
